# xmcd
#
# Track frame offsets:
#	150
#	12902
#	25579
#	38706
#	53033
#	66685
#	81087
#	94589
#	107416
#	121368
#	131870
#	144621
#	155348
#	168475
#	180177
#	194654
#
# Disc length: 2776 seconds
#
# Revision: 0
# Processed by: cddbd v1.5.2PL0 Copyright (c) Steve Scherf et al.
# Submitted via: EasyCDDAExtractor 16.0.6.1
#
DISCID=d30ad610
DTITLE=Ιωαννίδης Πάνος - Χρυσός δίσκος-Ιωαννίδης Πάνος
DYEAR=2000
DGENRE=Λαϊκή
TTITLE0=Ιωαννίδης Πάνος - Ένας άντρας ξοφλημένος [Χ. Νικολόπουλος-Πυθαγόρας]
TTITLE1=Ιωαννίδης Πάνος - Ποτέ πουθενά [Ι. Βασιλόπουλος-Ευάγγ. Ατραΐδης]
TTITLE2=Ιωαννίδης Πάνος-Φιλιππιδάκη Τζένη - Όμορφη Σεργιώτισσα [Π. Ιωαννίδης-Ε
TTITLE2=Φυλαχτός]
TTITLE3=Ιωαννίδης Πάνος-Φιλιππιδάκη Τζένη - Αντίο γλυκειά μου αγάπη [Π. Ιωαννί
TTITLE3=δης-Ε. Φυλαχτός]
TTITLE4=Ιωαννίδης Πάνος - Θα την ρίξω την καρδιά μου ισοβίτισσα [Π. Ιωαννίδης-
TTITLE4=Ηλ. Πολύδωρος]
TTITLE5=Ιωαννίδης Πάνος - Ψεύτικη η αγάπη σου [Ε. Φυλαχτός]
TTITLE6=Ιωαννίδης Πάνος - Ο τρελλός [Χ. Νικολόπουλος-Ηλ. Πολύδωρος]
TTITLE7=Ιωαννίδης Πάνος - Ξετρελλαμένα από αγάπη [Α. Καψάλης-Ε. Φυλαχτός]
TTITLE8=Ιωαννίδης Πάνος - Μόνος μου περιπλανιέμαι [Κ. Κάξος-Τ. Βουλγαρίδης]
TTITLE9=Ιωαννίδης Πάνος - Μαζί μου απορούν [Χ. Νικολόπουλος-Ι. Βασιλόπουλος-Β.
TTITLE9=Ατραΐδης]
TTITLE10=Ιωαννίδης Πάνος-Φιλιππιδάκη Τζένη - Είσαι το άστρο της αυγής [Τ. Έσδρ
TTITLE10=ας-Ε. Κάξος]
TTITLE11=Ιωαννίδης Πάνος - Θα σπάσω το μπουζούκι μου [Χ. Νικολόπουλος-Ηλ. Πολύ
TTITLE11=δωρος]
TTITLE12=Ιωαννίδης Πάνος - Γίνε καρδιά μου μάρμαρο [Π. Οικονομίδης-Ε. Φυλακτός
TTITLE12=]
TTITLE13=Ιωαννίδης Πάνος - Μη ξημερώσει [Χ. Νικολόπουλος-Ι. Βασιλόπουλος-Β. Ατ
TTITLE13=ραΐδης]
TTITLE14=Ιωαννίδης Πάνος - Άσχημα φωνήεντα [Χ. Νικολόπουλος-Ηλ. Πολύδωρος]
TTITLE15=Ιωαννίδης Πάνος - Το αύριο [Ι. Βασιλόπουλος-Ε. Ατραΐδης]
EXTD=
EXTT0=
EXTT1=
EXTT2=
EXTT3=
EXTT4=
EXTT5=
EXTT6=
EXTT7=
EXTT8=
EXTT9=
EXTT10=
EXTT11=
EXTT12=
EXTT13=
EXTT14=
EXTT15=
PLAYORDER=
